<?xml version="1.0" encoding="utf-8"?>
<!-- Generator: Adobe Illustrator 23.0.1, SVG Export Plug-In . SVG Version: 6.00 Build 0)  -->
<svg version="1.1" id="Layer_1" xmlns="http://www.w3.org/2000/svg" xmlns:xlink="http://www.w3.org/1999/xlink" x="0px" y="0px"
	 width="20px" height="20px" viewBox="0 0 20 20" style="enable-background:new 0 0 20 20;" xml:space="preserve">
<style type="text/css">
	.st0{fill:#4267B2;}
	.st1{fill:#FFFFFF;}
</style>
<path class="st0" d="M18,20H2c-1.1045694,0-2-0.8954296-2-2V2c0-1.1045694,0.8954305-2,2-2h16c1.1045704,0,2,0.8954305,2,2v16
	C20,19.1045704,19.1045704,20,18,20z"/>
<path id="f" class="st1" d="M13.2423105,20v-7.2882223h2.4570351l0.367837-2.8527126h-2.824872V8.0421133
	c0-0.8239541,0.2287931-1.3854489,1.4103899-1.3854489l1.4975376-0.0006852V4.1120567
	C15.8896589,4.0774422,14.9956865,4,13.9556017,4c-2.1714258,0-3.6580276,1.32549-3.6580276,3.759728v2.0993371H7.8497624v2.8527126
	h2.4478116V20H13.2423105z"/>
</svg>
